<svg width="659" height="136" viewBox="0 0 659 136" fill="none" xmlns="http://www.w3.org/2000/svg">
<g filter="url(#filter0_d_15_70665)">
<path d="M17.3 29.4H31.892L58.26 54.232V73.56L33.428 50.136V103H17.3V29.4ZM105.492 29.4H91.028L64.532 54.232V73.56L89.364 50.136V103H105.492V29.4ZM128.49 38.232L143.466 29.4H169.962V43.864H144.618V88.024H169.45V103H143.466L128.49 94.296V38.232ZM216.682 38.232L202.218 29.4H175.722V43.864H200.554V88.024H175.722V103H202.218L216.682 94.296V38.232Z" fill="#191A1C"/>
<path d="M252.42 62.047C252.42 64.6823 250.807 66 247.582 66H237.729C234.582 66 233.009 64.6823 233.009 62.047V44.406C233.009 41.928 234.582 40.689 237.729 40.689H247.582C250.807 40.689 252.42 41.928 252.42 44.406V62.047ZM240.207 63.817H244.573C245.006 63.817 245.438 63.758 245.871 63.64C246.304 63.522 246.697 63.3253 247.051 63.05C247.444 62.7747 247.739 62.401 247.936 61.929C248.172 61.4177 248.29 60.7687 248.29 59.982V49.244C248.29 48.8507 248.152 48.654 247.877 48.654C247.523 48.654 246.894 49.1063 245.989 50.011L238.673 59.805C237.572 60.867 237.021 61.7323 237.021 62.401C237.021 63.345 238.083 63.817 240.207 63.817ZM246.638 47.12C247.543 46.294 247.995 45.527 247.995 44.819C247.995 44.1503 247.621 43.6783 246.874 43.403C246.166 43.1277 245.497 42.99 244.868 42.99H240.738C239.519 42.99 238.594 43.3047 237.965 43.934C237.375 44.5633 237.08 45.586 237.08 47.002V57.268C237.08 57.622 237.178 57.799 237.375 57.799C237.611 57.799 238.201 57.386 239.145 56.56L246.638 47.12ZM267.331 63.345V46.117C267.331 45.055 267.076 44.347 266.564 43.993C266.053 43.5997 265.483 43.344 264.853 43.226C264.224 43.0687 263.634 42.931 263.083 42.813C262.572 42.695 262.316 42.3803 262.316 41.869C262.316 41.1217 263.064 40.748 264.558 40.748H267.095C270.163 40.748 271.697 42.1443 271.697 44.937V63.581C271.697 65.5477 270.97 66.531 269.514 66.531C268.059 66.531 267.331 65.469 267.331 63.345ZM302.893 62.047C302.893 64.6823 301.28 66 298.055 66H288.202C285.055 66 283.482 64.6823 283.482 62.047V44.406C283.482 41.928 285.055 40.689 288.202 40.689H298.055C301.28 40.689 302.893 41.928 302.893 44.406V62.047ZM290.68 63.817H295.046C295.478 63.817 295.911 63.758 296.344 63.64C296.776 63.522 297.17 63.3253 297.524 63.05C297.917 62.7747 298.212 62.401 298.409 61.929C298.645 61.4177 298.763 60.7687 298.763 59.982V49.244C298.763 48.8507 298.625 48.654 298.35 48.654C297.996 48.654 297.366 49.1063 296.462 50.011L289.146 59.805C288.044 60.867 287.494 61.7323 287.494 62.401C287.494 63.345 288.556 63.817 290.68 63.817ZM297.111 47.12C298.015 46.294 298.468 45.527 298.468 44.819C298.468 44.1503 298.094 43.6783 297.347 43.403C296.639 43.1277 295.97 42.99 295.341 42.99H291.211C289.991 42.99 289.067 43.3047 288.438 43.934C287.848 44.5633 287.553 45.586 287.553 47.002V57.268C287.553 57.622 287.651 57.799 287.848 57.799C288.084 57.799 288.674 57.386 289.618 56.56L297.111 47.12ZM328.129 62.047C328.129 64.6823 326.516 66 323.291 66H313.438C310.291 66 308.718 64.6823 308.718 62.047V44.406C308.718 41.928 310.291 40.689 313.438 40.689H323.291C326.516 40.689 328.129 41.928 328.129 44.406V62.047ZM315.916 63.817H320.282C320.715 63.817 321.147 63.758 321.58 63.64C322.013 63.522 322.406 63.3253 322.76 63.05C323.153 62.7747 323.448 62.401 323.645 61.929C323.881 61.4177 323.999 60.7687 323.999 59.982V49.244C323.999 48.8507 323.861 48.654 323.586 48.654C323.232 48.654 322.603 49.1063 321.698 50.011L314.382 59.805C313.281 60.867 312.73 61.7323 312.73 62.401C312.73 63.345 313.792 63.817 315.916 63.817ZM322.347 47.12C323.252 46.294 323.704 45.527 323.704 44.819C323.704 44.1503 323.33 43.6783 322.583 43.403C321.875 43.1277 321.206 42.99 320.577 42.99H316.447C315.228 42.99 314.303 43.3047 313.674 43.934C313.084 44.5633 312.789 45.586 312.789 47.002V57.268C312.789 57.622 312.887 57.799 313.084 57.799C313.32 57.799 313.91 57.386 314.854 56.56L322.347 47.12ZM343.04 63.345V46.117C343.04 45.055 342.785 44.347 342.273 43.993C341.762 43.5997 341.192 43.344 340.562 43.226C339.933 43.0687 339.343 42.931 338.792 42.813C338.281 42.695 338.025 42.3803 338.025 41.869C338.025 41.1217 338.773 40.748 340.267 40.748H342.804C345.872 40.748 347.406 42.1443 347.406 44.937V63.581C347.406 65.5477 346.679 66.531 345.223 66.531C343.768 66.531 343.04 65.469 343.04 63.345ZM368.277 63.345V46.117C368.277 45.055 368.021 44.347 367.51 43.993C366.998 43.5997 366.428 43.344 365.799 43.226C365.169 43.0687 364.579 42.931 364.029 42.813C363.517 42.695 363.262 42.3803 363.262 41.869C363.262 41.1217 364.009 40.748 365.504 40.748H368.041C371.109 40.748 372.643 42.1443 372.643 44.937V63.581C372.643 65.5477 371.915 66.531 370.46 66.531C369.004 66.531 368.277 65.469 368.277 63.345ZM393.513 63.345V46.117C393.513 45.055 393.257 44.347 392.746 43.993C392.235 43.5997 391.664 43.344 391.035 43.226C390.406 43.0687 389.816 42.931 389.265 42.813C388.754 42.695 388.498 42.3803 388.498 41.869C388.498 41.1217 389.245 40.748 390.74 40.748H393.277C396.345 40.748 397.879 42.1443 397.879 44.937V63.581C397.879 65.5477 397.151 66.531 395.696 66.531C394.241 66.531 393.513 65.469 393.513 63.345ZM418.749 63.345V46.117C418.749 45.055 418.494 44.347 417.982 43.993C417.471 43.5997 416.901 43.344 416.271 43.226C415.642 43.0687 415.052 42.931 414.501 42.813C413.99 42.695 413.734 42.3803 413.734 41.869C413.734 41.1217 414.482 40.748 415.976 40.748H418.513C421.581 40.748 423.115 42.1443 423.115 44.937V63.581C423.115 65.5477 422.388 66.531 420.932 66.531C419.477 66.531 418.749 65.469 418.749 63.345Z" fill="#191A1C"/>
<path d="M240.216 97.36C240.216 97.0933 240.323 96.8667 240.536 96.68C240.749 96.4933 241.109 96.4 241.616 96.4C242.549 96.4 243.016 96.8267 243.016 97.68V98.36C243.016 100.12 242.003 101 239.976 101H232.776C230.829 101 229.856 100.053 229.856 98.16V86.76C229.856 84.8133 230.843 83.84 232.816 83.84H239.976C242.003 83.84 243.016 84.72 243.016 86.48V87.08C243.016 88.04 242.549 88.52 241.616 88.52C240.683 88.52 240.216 88.2133 240.216 87.6C240.216 86.1333 239.403 85.4 237.776 85.4H235.056C233.456 85.4 232.656 86.0933 232.656 87.48V97.48C232.656 98.84 233.443 99.52 235.016 99.52H237.856C239.429 99.52 240.216 98.8 240.216 97.36ZM256.045 98.24C256.045 99.2267 255.779 99.9333 255.245 100.36C254.739 100.787 253.992 101 253.005 101H249.685C247.552 101 246.485 100.08 246.485 98.24V91.32C246.485 90.4667 246.739 89.7867 247.245 89.28C247.752 88.7733 248.539 88.52 249.605 88.52H253.005C253.992 88.52 254.739 88.7733 255.245 89.28C255.779 89.7867 256.045 90.48 256.045 91.36V98.24ZM253.165 97.2V92.32C253.165 90.7467 252.605 89.96 251.485 89.96H250.965C249.925 89.96 249.405 90.8133 249.405 92.52V97.24C249.405 98.84 249.939 99.64 251.005 99.64H251.605C252.645 99.64 253.165 98.8267 253.165 97.2ZM263.845 88.52C265.365 88.52 266.125 87.8133 266.125 86.4V85.04C266.125 83.68 266.592 83 267.525 83C268.512 83 269.005 83.6133 269.005 84.84V98.36C269.005 99.32 268.738 100.013 268.205 100.44C267.698 100.867 266.938 101.08 265.925 101.08H262.605C261.538 101.08 260.738 100.867 260.205 100.44C259.672 99.9867 259.405 99.2533 259.405 98.24L259.445 91.24C259.445 89.4533 260.485 88.5467 262.565 88.52H263.845ZM262.325 97.24C262.325 98.8933 262.858 99.72 263.925 99.72H264.445C265.565 99.72 266.125 98.9067 266.125 97.28V92.56C266.125 90.8 265.605 89.92 264.565 89.92H263.965C262.898 89.92 262.365 90.7333 262.365 92.36L262.325 97.24ZM276.404 99.64H280.444C281.458 99.64 281.964 99.88 281.964 100.36C281.964 100.787 281.484 101 280.524 101H275.524C273.444 101 272.404 100.027 272.404 98.08V89.24C272.404 87.32 273.471 86.36 275.604 86.36H278.924C279.911 86.36 280.658 86.5733 281.164 87C281.698 87.4 281.964 87.9867 281.964 88.76V93.36C281.964 94.3467 281.698 95.0533 281.164 95.48C280.658 95.9067 279.911 96.12 278.924 96.12H276.484C275.684 96.12 275.284 96.72 275.284 97.92C275.284 99.0667 275.658 99.64 276.404 99.64ZM275.284 89.72V92.72C275.284 94.0533 275.938 94.72 277.244 94.72C278.471 94.72 279.084 94.0533 279.084 92.72V89.72C279.084 88.3867 278.471 87.72 277.244 87.72C275.938 87.72 275.284 88.3867 275.284 89.72ZM300.473 97.28V90.36C300.473 89 300.966 88.32 301.953 88.32C302.886 88.32 303.353 88.9867 303.353 90.32V102.92C303.353 104.787 302.433 105.72 300.593 105.72H295.153C294.779 105.72 294.499 105.667 294.313 105.56C294.153 105.48 294.073 105.293 294.073 105C294.073 104.52 294.499 104.28 295.353 104.28H299.473C300.459 104.28 300.953 103.747 300.953 102.68C300.953 101.56 300.393 101 299.273 101H296.873H296.473C294.659 101 293.753 100.093 293.753 98.28V90.16C293.753 88.9333 294.219 88.32 295.153 88.32C296.166 88.32 296.673 89.0133 296.673 90.4V97.32C296.673 98.84 297.219 99.6 298.313 99.6H298.873C299.939 99.6 300.473 98.8267 300.473 97.28ZM316.272 98.24C316.272 99.2267 316.005 99.9333 315.472 100.36C314.965 100.787 314.219 101 313.232 101H309.912C307.779 101 306.712 100.08 306.712 98.24V91.32C306.712 90.4667 306.965 89.7867 307.472 89.28C307.979 88.7733 308.765 88.52 309.832 88.52H313.232C314.219 88.52 314.965 88.7733 315.472 89.28C316.005 89.7867 316.272 90.48 316.272 91.36V98.24ZM313.392 97.2V92.32C313.392 90.7467 312.832 89.96 311.712 89.96H311.192C310.152 89.96 309.632 90.8133 309.632 92.52V97.24C309.632 98.84 310.165 99.64 311.232 99.64H311.832C312.872 99.64 313.392 98.8267 313.392 97.2ZM326.351 97.28V90.52C326.351 89.1333 326.818 88.44 327.751 88.44C328.738 88.44 329.231 89.0533 329.231 90.28V98.2C329.231 99.2133 328.965 99.9333 328.431 100.36C327.925 100.787 327.178 101 326.191 101H322.751C321.685 101 320.898 100.8 320.391 100.4C319.885 99.9733 319.631 99.2667 319.631 98.28V90.32C319.631 89.0667 320.138 88.44 321.151 88.44C322.085 88.44 322.551 89.1333 322.551 90.52V97.32C322.551 98.84 323.098 99.6 324.191 99.6H324.751C325.818 99.6 326.351 98.8267 326.351 97.28ZM338.991 89.92H337.751C336.284 89.92 335.551 90.6133 335.551 92V99.08C335.551 100.467 335.084 101.16 334.151 101.16C333.137 101.16 332.631 100.547 332.631 99.32V91.28C332.631 89.44 333.711 88.52 335.871 88.52H339.031C340.044 88.52 340.551 88.76 340.551 89.24C340.551 89.6933 340.031 89.92 338.991 89.92ZM352.459 85.04C351.446 85.04 350.939 84.68 350.939 83.96C350.939 83.24 351.446 82.88 352.459 82.88C353.419 82.88 353.899 83.24 353.899 83.96C353.899 84.68 353.419 85.04 352.459 85.04ZM352.459 101.16C351.472 101.16 350.979 100.547 350.979 99.32V90.48C350.979 89.2267 351.472 88.6 352.459 88.6C353.392 88.6 353.859 89.2 353.859 90.4V99.28C353.859 100.533 353.392 101.16 352.459 101.16ZM361.964 88.52C363.484 88.52 364.244 87.8133 364.244 86.4V85.04C364.244 83.68 364.71 83 365.644 83C366.63 83 367.124 83.6133 367.124 84.84V98.36C367.124 99.32 366.857 100.013 366.324 100.44C365.817 100.867 365.057 101.08 364.044 101.08H360.724C359.657 101.08 358.857 100.867 358.324 100.44C357.79 99.9867 357.524 99.2533 357.524 98.24L357.564 91.24C357.564 89.4533 358.604 88.5467 360.684 88.52H361.964ZM360.444 97.24C360.444 98.8933 360.977 99.72 362.044 99.72H362.564C363.684 99.72 364.244 98.9067 364.244 97.28V92.56C364.244 90.8 363.724 89.92 362.684 89.92H362.084C361.017 89.92 360.484 90.7333 360.484 92.36L360.444 97.24ZM374.523 99.64H378.563C379.576 99.64 380.083 99.88 380.083 100.36C380.083 100.787 379.603 101 378.643 101H373.643C371.563 101 370.523 100.027 370.523 98.08V89.24C370.523 87.32 371.59 86.36 373.723 86.36H377.043C378.03 86.36 378.776 86.5733 379.283 87C379.816 87.4 380.083 87.9867 380.083 88.76V93.36C380.083 94.3467 379.816 95.0533 379.283 95.48C378.776 95.9067 378.03 96.12 377.043 96.12H374.603C373.803 96.12 373.403 96.72 373.403 97.92C373.403 99.0667 373.776 99.64 374.523 99.64ZM373.403 89.72V92.72C373.403 94.0533 374.056 94.72 375.363 94.72C376.59 94.72 377.203 94.0533 377.203 92.72V89.72C377.203 88.3867 376.59 87.72 375.363 87.72C374.056 87.72 373.403 88.3867 373.403 89.72ZM390.162 92.2C390.162 90.7067 389.602 89.96 388.482 89.96H387.962C386.896 89.96 386.362 90.76 386.362 92.36V99.04C386.362 100.453 385.896 101.16 384.962 101.16C383.949 101.16 383.442 100.547 383.442 99.32V91.32C383.442 90.4667 383.696 89.7867 384.202 89.28C384.736 88.7733 385.536 88.52 386.602 88.52H390.002C390.989 88.52 391.736 88.7733 392.242 89.28C392.776 89.76 393.042 90.4267 393.042 91.28V99.24C393.042 100.52 392.549 101.16 391.562 101.16C390.629 101.16 390.162 100.453 390.162 99.04V92.2ZM397.922 83C398.855 83 399.322 83.6933 399.322 85.08V86.4C399.322 87.8133 400.095 88.52 401.642 88.52H402.402C403.468 88.52 404.002 88.7467 404.002 89.2C404.002 89.68 403.468 89.92 402.402 89.92H401.642C400.095 89.92 399.322 90.8533 399.322 92.72V97.12C399.322 98.6933 400.082 99.48 401.602 99.48H402.562C403.602 99.48 404.122 99.7333 404.122 100.24C404.122 100.747 403.642 101 402.682 101H399.362C397.415 101 396.442 100.027 396.442 98.08V84.88C396.442 83.6267 396.935 83 397.922 83ZM407.881 85.04C406.867 85.04 406.361 84.68 406.361 83.96C406.361 83.24 406.867 82.88 407.881 82.88C408.841 82.88 409.321 83.24 409.321 83.96C409.321 84.68 408.841 85.04 407.881 85.04ZM407.881 101.16C406.894 101.16 406.401 100.547 406.401 99.32V90.48C406.401 89.2267 406.894 88.6 407.881 88.6C408.814 88.6 409.281 89.2 409.281 90.4V99.28C409.281 100.533 408.814 101.16 407.881 101.16ZM414.465 83C415.399 83 415.865 83.6933 415.865 85.08V86.4C415.865 87.8133 416.639 88.52 418.185 88.52H418.945C420.012 88.52 420.545 88.7467 420.545 89.2C420.545 89.68 420.012 89.92 418.945 89.92H418.185C416.639 89.92 415.865 90.8533 415.865 92.72V97.12C415.865 98.6933 416.625 99.48 418.145 99.48H419.105C420.145 99.48 420.665 99.7333 420.665 100.24C420.665 100.747 420.185 101 419.225 101H415.905C413.959 101 412.985 100.027 412.985 98.08V84.88C412.985 83.6267 413.479 83 414.465 83ZM429.345 97.28V90.36C429.345 89 429.838 88.32 430.825 88.32C431.758 88.32 432.225 88.9867 432.225 90.32V102.92C432.225 104.787 431.305 105.72 429.465 105.72H424.025C423.651 105.72 423.371 105.667 423.185 105.56C423.025 105.48 422.945 105.293 422.945 105C422.945 104.52 423.371 104.28 424.225 104.28H428.345C429.331 104.28 429.825 103.747 429.825 102.68C429.825 101.56 429.265 101 428.145 101H425.745H425.345C423.531 101 422.625 100.093 422.625 98.28V90.16C422.625 88.9333 423.091 88.32 424.025 88.32C425.038 88.32 425.545 89.0133 425.545 90.4V97.32C425.545 98.84 426.091 99.6 427.185 99.6H427.745C428.811 99.6 429.345 98.8267 429.345 97.28Z" fill="#191A1C"/>
<path d="M444.74 38.232L459.716 29.4H486.212V43.864H460.868V88.024H485.7V103H459.716L444.74 94.296V38.232ZM532.932 38.232L518.468 29.4H491.972V43.864H516.804V88.024H491.972V103H518.468L532.932 94.296V38.232ZM555.925 29.4H596.885V43.864H572.053V88.024H596.885V103H555.925V29.4ZM644.117 38.232L629.653 29.4H603.157V43.864H627.989V88.024H603.157V103H629.653L644.117 94.296V38.232Z" fill="#191A1C"/>
</g>
<defs>
<filter id="filter0_d_15_70665" x="0.5" y="0" width="658" height="136" filterUnits="userSpaceOnUse" color-interpolation-filters="sRGB">
<feFlood flood-opacity="0" result="BackgroundImageFix"/>
<feColorMatrix in="SourceAlpha" type="matrix" values="0 0 0 0 0 0 0 0 0 0 0 0 0 0 0 0 0 0 127 0" result="hardAlpha"/>
<feOffset dy="4"/>
<feGaussianBlur stdDeviation="2"/>
<feComposite in2="hardAlpha" operator="out"/>
<feColorMatrix type="matrix" values="0 0 0 0 0 0 0 0 0 0 0 0 0 0 0 0 0 0 0.25 0"/>
<feBlend mode="normal" in2="BackgroundImageFix" result="effect1_dropShadow_15_70665"/>
<feBlend mode="normal" in="SourceGraphic" in2="effect1_dropShadow_15_70665" result="shape"/>
</filter>
</defs>
</svg>
